<svg version="1.1" xmlns="http://www.w3.org/2000/svg" xmlns:xlink="http://www.w3.org/1999/xlink" width="48" height="48"><defs><linearGradient x1="0" y1="0" x2="0" y2="0" gradientUnits="userSpaceOnUse" id="color-1"><stop offset="1" stop-color="#000000" stop-opacity="0"></stop><stop offset="1" stop-color="#000000" stop-opacity="0"></stop></linearGradient><filter id="dropshadow-base"><feColorMatrix type="matrix" values="0 0 0 0 0  0 0 0 0 0  0 0 0 0 0  0 0 0 .8 0"></feColorMatrix> <feOffset dx="0" dy="1"></feOffset> <feGaussianBlur stdDeviation="1"></feGaussianBlur> <feComposite in="SourceGraphic"></feComposite></filter><filter id="dropshadow-banner" x="-10%" y="-10%" width="120%" height="130%"><feColorMatrix type="matrix" values="0 0 0 0 0  0 0 0 0 0  0 0 0 0 0  0 0 0 .4 0"></feColorMatrix> <feOffset dx="0" dy="1"></feOffset> <feGaussianBlur stdDeviation="0.5"></feGaussianBlur> <feComposite in="SourceGraphic"></feComposite></filter></defs><g fill="none" fill-rule="nonzero" stroke="none" stroke-width="none" stroke-linecap="butt" stroke-linejoin="miter" stroke-miterlimit="10" stroke-dasharray="" stroke-dashoffset="0" font-family="none" font-weight="none" font-size="none" text-anchor="none" style="mix-blend-mode: normal"><path d="M2,24c0,-12.15026 9.84974,-22 22,-22c12.15026,0 22,9.84974 22,22c0,12.15026 -9.84974,22 -22,22c-12.15026,0 -22,-9.84974 -22,-22z" id="base 1 5" fill-opacity="0" fill="#000000" stroke-width="1"></path><path d="" fill="url(#color-1)" stroke-width="1"></path><path d="M24,5.2618c-10.34765,0 -18.7382,8.39055 -18.7382,18.7382c0,10.34765 8.39055,18.7382 18.7382,18.7382c1.72808,0 3.12303,-1.39495 3.12303,-3.12303c0,-0.81199 -0.30189,-1.5407 -0.81199,-2.09243c-0.48928,-0.55174 -0.78076,-1.27003 -0.78076,-2.07161c0,-1.72808 1.39495,-3.12303 3.12303,-3.12303h3.67477c5.74638,0 10.41011,-4.66373 10.41011,-10.41011c0,-9.20254 -8.39055,-16.65618 -18.7382,-16.65618zM12.54888,24c-1.72808,0 -3.12303,-1.39495 -3.12303,-3.12303c0,-1.72808 1.39495,-3.12303 3.12303,-3.12303c1.72808,0 3.12303,1.39495 3.12303,3.12303c0,1.72808 -1.39495,3.12303 -3.12303,3.12303zM18.79494,15.67191c-1.72808,0 -3.12303,-1.39495 -3.12303,-3.12303c0,-1.72808 1.39495,-3.12303 3.12303,-3.12303c1.72808,0 3.12303,1.39495 3.12303,3.12303c0,1.72808 -1.39495,3.12303 -3.12303,3.12303zM29.20506,15.67191c-1.72808,0 -3.12303,-1.39495 -3.12303,-3.12303c0,-1.72808 1.39495,-3.12303 3.12303,-3.12303c1.72808,0 3.12303,1.39495 3.12303,3.12303c0,1.72808 -1.39495,3.12303 -3.12303,3.12303zM35.45112,24c-1.72808,0 -3.12303,-1.39495 -3.12303,-3.12303c0,-1.72808 1.39495,-3.12303 3.12303,-3.12303c1.72808,0 3.12303,1.39495 3.12303,3.12303c0,1.72808 -1.39495,3.12303 -3.12303,3.12303z" fill="none" stroke-width="0"></path><path d="M42.7382,21.91798c0,5.74638 -4.66373,10.41011 -10.41011,10.41011h-3.67477c-1.72808,0 -3.12303,1.39495 -3.12303,3.12303c0,0.80158 0.29148,1.51988 0.78076,2.07161c0.5101,0.55174 0.81199,1.28044 0.81199,2.09243c0,1.72808 -1.39495,3.12303 -3.12303,3.12303c-10.34765,0 -18.7382,-8.39055 -18.7382,-18.7382c0,-10.34765 8.39055,-18.7382 18.7382,-18.7382c10.34765,0 18.7382,7.45364 18.7382,16.65618zM15.67191,20.87697c0,-1.72808 -1.39495,-3.12303 -3.12303,-3.12303c-1.72808,0 -3.12303,1.39495 -3.12303,3.12303c0,1.72808 1.39495,3.12303 3.12303,3.12303c1.72808,0 3.12303,-1.39495 3.12303,-3.12303zM21.91798,12.54888c0,-1.72808 -1.39495,-3.12303 -3.12303,-3.12303c-1.72808,0 -3.12303,1.39495 -3.12303,3.12303c0,1.72808 1.39495,3.12303 3.12303,3.12303c1.72808,0 3.12303,-1.39495 3.12303,-3.12303zM32.32809,12.54888c0,-1.72808 -1.39495,-3.12303 -3.12303,-3.12303c-1.72808,0 -3.12303,1.39495 -3.12303,3.12303c0,1.72808 1.39495,3.12303 3.12303,3.12303c1.72808,0 3.12303,-1.39495 3.12303,-3.12303zM38.57416,20.87697c0,-1.72808 -1.39495,-3.12303 -3.12303,-3.12303c-1.72808,0 -3.12303,1.39495 -3.12303,3.12303c0,1.72808 1.39495,3.12303 3.12303,3.12303c1.72808,0 3.12303,-1.39495 3.12303,-3.12303z" fill="#000000" stroke-width="0"></path><path d="M2,24c0,-12.15026 9.84974,-22 22,-22c12.15026,0 22,9.84974 22,22c0,12.15026 -9.84974,22 -22,22c-12.15026,0 -22,-9.84974 -22,-22z" id="base 1 1 1" fill="none" stroke-width="1"></path><g fill="#000000" stroke-width="1" font-family="Roboto, sans-serif" font-weight="400" font-size="14" text-anchor="start"></g><rect x="2" y="2" width="44" height="22" fill="none" stroke-width="1"></rect><path d="M2,24v-22h44v22z" fill="none" stroke-width="1"></path><path d="M2,24v-22h44v22z" fill="none" stroke-width="1"></path><path d="M2,24v-22h44v22z" fill="none" stroke-width="1"></path><path d="M2,24v-22h44v22z" fill="none" stroke-width="1"></path></g></svg>